# xmcd
#
# Track frame offsets:
#	150
#	39118
#	60931
#	80605
#	102992
#	128414
#	157022
#	193323
#	279340
#
# Disc length: 4175 seconds
#
# Revision: 1
# Processed by: cddbd v1.5.2PL0 Copyright (c) Steve Scherf et al.
# Submitted via: audiograbber 1.83.01
#
DISCID=6d104d09
DTITLE=Grateful Dead - 95-07-06 Riverport Amphitheatre, Maryland Heights MO
DYEAR=1900
DGENRE=
TTITLE0=Mississippi Half-Step Uptown Toodeloo
TTITLE1=Take Me To The River
TTITLE2=Big Boss Man
TTITLE3=Me and My Uncle
TTITLE4=Big River
TTITLE5=Brown Eyed Women
TTITLE6=Cassidy
TTITLE7=Eyes Of The World
TTITLE8=Unbroken Chain
EXTD=
EXTT0=
EXTT1=
EXTT2=
EXTT3=
EXTT4=
EXTT5=
EXTT6=
EXTT7=
EXTT8=
PLAYORDER=
